# xmcd CD database file
#
# Track frame offsets:
#	150
#	17000
#	35400
#	58300
#	74435
#	93935
#	110147
#	131152
#	151212
#	167702
#	190277
#
# Disc length: 2778 seconds
#
# Revision: 1
# Processed by: cddbd v1.5.2PL0 Copyright (c) Steve Scherf et al.
# Submitted via: CDex 1.51
#
DISCID=9a0ad80b
DTITLE=Shelby Lynne - Love, Shelby
DYEAR=1900
DGENRE=Rock
TTITLE0=Trust Me
TTITLE1=Bend
TTITLE2=Jesus On A Greyhound
TTITLE3=Wall In Your Heartt
TTITLE4=Ain't It The Truth
TTITLE5=I Can't Wait
TTITLE6=Tarpoleon Napoleon
TTITLE7=Killin' Kind
TTITLE8=All Of A Sudden You Disappeared
TTITLE9=Mother
TTITLE10=Roulette With Paulette
EXTD=
EXTT0=
EXTT1=
EXTT2=
EXTT3=
EXTT4=
EXTT5=
EXTT6=
EXTT7=
EXTT8=
EXTT9=
EXTT10=
PLAYORDER=
